<svg width="15" height="15" viewBox="0 0 24 24" fill="black" xmlns="http://www.w3.org/2000/svg">
<g clip-path="url(#clip0_2204_3840)">
<path fill-rule="evenodd" clip-rule="evenodd" d="M2.08333 4.6875C3.23393 4.6875 4.16667 3.84803 4.16667 2.8125C4.16667 1.77697 3.23393 0.9375 2.08333 0.9375C0.93274 0.9375 0 1.77697 0 2.8125C0 3.84803 0.93274 4.6875 2.08333 4.6875ZM7.29167 4.6875C8.44226 4.6875 9.375 3.84803 9.375 2.8125C9.375 1.77697 8.44226 0.9375 7.29167 0.9375C6.14107 0.9375 5.20833 1.77697 5.20833 2.8125C5.20833 3.84803 6.14107 4.6875 7.29167 4.6875ZM4.16667 7.5C4.16667 8.53553 3.23393 9.375 2.08333 9.375C0.93274 9.375 0 8.53553 0 7.5C0 6.46447 0.93274 5.625 2.08333 5.625C3.23393 5.625 4.16667 6.46447 4.16667 7.5ZM7.29167 9.375C8.44226 9.375 9.375 8.53553 9.375 7.5C9.375 6.46447 8.44226 5.625 7.29167 5.625C6.14107 5.625 5.20833 6.46447 5.20833 7.5C5.20833 8.53553 6.14107 9.375 7.29167 9.375ZM4.16667 12.1875C4.16667 13.223 3.23393 14.0625 2.08333 14.0625C0.93274 14.0625 0 13.223 0 12.1875C0 11.152 0.93274 10.3125 2.08333 10.3125C3.23393 10.3125 4.16667 11.152 4.16667 12.1875ZM7.29167 14.0625C8.44226 14.0625 9.375 13.223 9.375 12.1875C9.375 11.152 8.44226 10.3125 7.29167 10.3125C6.14107 10.3125 5.20833 11.152 5.20833 12.1875C5.20833 13.223 6.14107 14.0625 7.29167 14.0625Z"/>
</g>
<defs>
<clipPath id="clip0_2204_3840">
<rect width="9.375" height="15"/>
</clipPath>
</defs>
</svg>
