<svg width="16" height="16" viewBox="0 0 16 16" fill="black" xmlns="http://www.w3.org/2000/svg">
<path d="M1.00001 16H15.0002V14H1.00001V16ZM13.0001 7.99991H10.9201C10.412 7.99991 10.0001 7.58803 10.0001 7.0799V6.78427C10.0001 5.92895 10.2776 5.11519 10.6707 4.35549C10.9554 3.80517 11.0739 3.15579 10.9536 2.46735C10.742 1.25546 9.75136 0.257946 8.53916 0.0470058C6.64445 -0.282685 5.00006 1.16639 5.00006 2.99985C5.00006 3.44236 5.09756 3.86049 5.27162 4.23674C5.68819 5.13831 6.00007 6.08426 6.00007 7.07771V7.0799C6.00007 7.58803 5.58819 7.99991 5.08006 7.99991H3.00003C1.34314 7.99991 0 9.34305 0 10.9999V12C0 12.5521 0.447818 13 1.00001 13H15.0002C15.5524 13 16.0002 12.5521 16.0002 12V10.9999C16.0002 9.34305 14.657 7.99991 13.0001 7.99991Z"/>
</svg>